# xmcd CD database file
#
# Track frame offsets:
#	150
#	48613
#	97632
#	142447
#
# Disc length: 2657 seconds
#
# Revision: 0
# Processed by: cddbd v1.5.1PL2 Copyright (c) Steve Scherf et al.
# Submitted via: CDex 1.60beta1-cs1
#
DISCID=340a5f04
DTITLE=Ornette Coleman - At The "Golden Circle" Stockholm Vol.2
DYEAR=1965
DGENRE=Jazz
TTITLE0=Snowflekes And Sunshine
TTITLE1=Morning Song
TTITLE2=The Riddle
TTITLE3=Antiqes
EXTD=YEAR: 1965
EXTT0=
EXTT1=
EXTT2=
EXTT3=
PLAYORDER=
